<svg width="26" height="26" viewBox="0 0 26 26" fill="none" xmlns="http://www.w3.org/2000/svg">
<g clip-path="url(#clip0_1058_391)">
<path d="M4.26748 6.11588L0.450928 2.3005L2.11618 0.635248L5.93156 4.4518H23.8692C24.0527 4.45179 24.2336 4.49465 24.3975 4.57698C24.5614 4.6593 24.7038 4.77881 24.8133 4.92595C24.9229 5.0731 24.9965 5.24381 25.0283 5.42446C25.0601 5.60511 25.0493 5.7907 24.9967 5.96642L22.1722 15.3813C22.0995 15.6238 21.9506 15.8364 21.7475 15.9876C21.5444 16.1388 21.298 16.2204 21.0448 16.2204H6.6212V18.5741H19.5666V20.9278H5.44434C5.13222 20.9278 4.83288 20.8038 4.61217 20.5831C4.39147 20.3624 4.26748 20.0631 4.26748 19.751V6.11588ZM6.6212 6.80552V13.8667H20.1692L22.2875 6.80552H6.6212ZM6.03277 25.6353C5.56458 25.6353 5.11557 25.4493 4.78452 25.1182C4.45346 24.7872 4.26748 24.3381 4.26748 23.87C4.26748 23.4018 4.45346 22.9528 4.78452 22.6217C5.11557 22.2907 5.56458 22.1047 6.03277 22.1047C6.50095 22.1047 6.94996 22.2907 7.28101 22.6217C7.61207 22.9528 7.79805 23.4018 7.79805 23.87C7.79805 24.3381 7.61207 24.7872 7.28101 25.1182C6.94996 25.4493 6.50095 25.6353 6.03277 25.6353ZM20.1551 25.6353C19.6869 25.6353 19.2379 25.4493 18.9068 25.1182C18.5758 24.7872 18.3898 24.3381 18.3898 23.87C18.3898 23.4018 18.5758 22.9528 18.9068 22.6217C19.2379 22.2907 19.6869 22.1047 20.1551 22.1047C20.6232 22.1047 21.0723 22.2907 21.4033 22.6217C21.7344 22.9528 21.9204 23.4018 21.9204 23.87C21.9204 24.3381 21.7344 24.7872 21.4033 25.1182C21.0723 25.4493 20.6232 25.6353 20.1551 25.6353Z" fill="#252525"/>
</g>
<defs>
<clipPath id="clip0_1058_391">
<rect width="25" height="25" fill="white" transform="translate(0.450928 0.635254)"/>
</clipPath>
</defs>
</svg>
