<svg width="19" height="15" viewBox="0 0 19 15" fill="none" xmlns="http://www.w3.org/2000/svg">
<path d="M9.5001 0.375C13.7688 0.375 17.3202 3.44667 18.0651 7.5C17.321 11.5533 13.7688 14.625 9.5001 14.625C5.23143 14.625 1.68002 11.5533 0.935059 7.5C1.67923 3.44667 5.23143 0.375 9.5001 0.375ZM9.5001 13.0417C11.1147 13.0413 12.6813 12.4929 13.9436 11.4862C15.2059 10.4795 16.0891 9.07405 16.4486 7.5C16.0877 5.9272 15.204 4.52334 13.9418 3.51794C12.6797 2.51254 11.1138 1.96508 9.5001 1.96508C7.88644 1.96508 6.32052 2.51254 5.05836 3.51794C3.79619 4.52334 2.91246 5.9272 2.55164 7.5C2.91113 9.07405 3.7943 10.4795 5.05659 11.4862C6.31888 12.4929 7.88552 13.0413 9.5001 13.0417ZM9.5001 11.0625C8.55527 11.0625 7.64913 10.6872 6.98103 10.0191C6.31293 9.35097 5.9376 8.44483 5.9376 7.5C5.9376 6.55517 6.31293 5.64903 6.98103 4.98093C7.64913 4.31283 8.55527 3.9375 9.5001 3.9375C10.4449 3.9375 11.3511 4.31283 12.0192 4.98093C12.6873 5.64903 13.0626 6.55517 13.0626 7.5C13.0626 8.44483 12.6873 9.35097 12.0192 10.0191C11.3511 10.6872 10.4449 11.0625 9.5001 11.0625ZM9.5001 9.47917C10.025 9.47917 10.5284 9.27065 10.8996 8.89948C11.2707 8.52832 11.4793 8.02491 11.4793 7.5C11.4793 6.97509 11.2707 6.47168 10.8996 6.10052C10.5284 5.72935 10.025 5.52083 9.5001 5.52083C8.97519 5.52083 8.47178 5.72935 8.10062 6.10052C7.72945 6.47168 7.52093 6.97509 7.52093 7.5C7.52093 8.02491 7.72945 8.52832 8.10062 8.89948C8.47178 9.27065 8.97519 9.47917 9.5001 9.47917Z" fill="#102840"/>
</svg>
