<svg width="30" height="30" viewBox="0 0 30 30" fill="none" xmlns="http://www.w3.org/2000/svg">
<path d="M18.9834 6C17.0689 6 15.3482 7.20357 14.5 9.07578C13.264 6.3477 10.2589 5.22437 7.78699 6.58841C6.09056 7.49777 5 9.42348 5 11.5364C5 11.6701 5 11.8306 5.02423 11.9643C5.12117 13.3819 5.70281 14.6924 6.64796 15.6285L14.0638 23.8128C14.1849 23.9465 14.3304 24 14.5 24C14.6696 24 14.8151 23.9198 14.9362 23.8128L22.352 15.6285L22.7156 15.2273C23.4668 14.318 23.9031 13.1679 23.9758 11.9376C23.9758 11.8039 24 11.6701 24 11.5364C24 8.48737 21.7462 6 18.9834 6Z" stroke="#102840"/>
</svg>
