<svg width="26" height="26" viewBox="0 0 26 26" fill="none" xmlns="http://www.w3.org/2000/svg">
<g clip-path="url(#clip0_1058_388)">
<path d="M12.952 3.79644C15.8881 1.16024 20.4256 1.24774 23.2543 4.08144C26.0817 6.91638 26.1792 11.4313 23.5493 14.3762L12.9495 24.991L2.35215 14.3762C-0.277801 11.4313 -0.179053 6.90888 2.64714 4.08144C5.47834 1.25149 10.007 1.15649 12.952 3.79644ZM21.4843 5.84765C19.6093 3.97019 16.5844 3.89394 14.6219 5.65641L12.9532 7.15388L11.2832 5.65766C9.31452 3.89269 6.29583 3.97019 4.41586 5.85015C2.5534 7.71262 2.45965 10.6938 4.17587 12.6638L12.9507 21.4524L21.7255 12.665C23.443 10.6938 23.3493 7.71637 21.4843 5.84765Z" fill="#252525"/>
</g>
<defs>
<clipPath id="clip0_1058_388">
<rect width="25" height="25" fill="white" transform="translate(0.450928 0.635254)"/>
</clipPath>
</defs>
</svg>
