<svg width="163" height="32" viewBox="0 0 163 32" fill="none" xmlns="http://www.w3.org/2000/svg">
<path d="M141.748 31.2722V6.65134H151.35C153.507 6.65134 155.348 6.99135 156.872 7.67135C158.396 8.35136 159.568 9.33619 160.389 10.6259C161.21 11.9155 161.62 13.4514 161.62 15.2335C161.62 17.0156 161.21 18.5514 160.389 19.8411C159.568 21.1073 158.396 22.0804 156.872 22.7604C155.348 23.4404 153.507 23.7805 151.35 23.7805H143.682L145.265 22.1625V31.2722H141.748ZM158.208 31.2722L151.948 22.3384H155.711L162.042 31.2722H158.208ZM145.265 22.5142L143.682 20.7908H151.244C153.495 20.7908 155.195 20.3101 156.344 19.3487C157.517 18.3639 158.103 16.9921 158.103 15.2335C158.103 13.4748 157.517 12.1148 156.344 11.1534C155.195 10.1921 153.495 9.71137 151.244 9.71137H143.682L145.265 7.95273V22.5142Z" fill="#102840"/>
<path d="M130.859 31.2722V6.65134H134.376V31.2722H130.859Z" fill="#102840"/>
<path d="M112.434 31.5536C110.559 31.5536 108.812 31.237 107.194 30.6039C105.599 29.9708 104.216 29.0915 103.043 27.966C101.871 26.817 100.956 25.4804 100.3 23.9563C99.6433 22.4321 99.315 20.7673 99.315 18.9617C99.315 17.1562 99.6433 15.4914 100.3 13.9672C100.956 12.4431 101.871 11.1182 103.043 9.9927C104.216 8.84372 105.599 7.95268 107.194 7.31957C108.788 6.68646 110.535 6.36991 112.434 6.36991C114.31 6.36991 116.034 6.68646 117.605 7.31957C119.199 7.92923 120.583 8.80855 121.755 9.95753C122.951 11.0831 123.866 12.4079 124.499 13.932C125.155 15.4562 125.483 17.1328 125.483 18.9617C125.483 20.7907 125.155 22.4673 124.499 23.9914C123.866 25.5156 122.951 26.8521 121.755 28.0011C120.583 29.1267 119.199 30.006 117.605 30.6391C116.034 31.2487 114.31 31.5536 112.434 31.5536ZM112.434 28.4232C113.794 28.4232 115.049 28.1887 116.198 27.7197C117.37 27.2508 118.379 26.5942 119.223 25.7501C120.09 24.8825 120.759 23.8742 121.228 22.7252C121.72 21.5762 121.966 20.3218 121.966 18.9617C121.966 17.6017 121.72 16.3472 121.228 15.1983C120.759 14.0493 120.09 13.0527 119.223 12.2086C118.379 11.341 117.37 10.6727 116.198 10.2037C115.049 9.73477 113.794 9.50028 112.434 9.50028C111.051 9.50028 109.773 9.73477 108.601 10.2037C107.452 10.6727 106.443 11.341 105.576 12.2086C104.708 13.0527 104.028 14.0493 103.536 15.1983C103.067 16.3472 102.832 17.6017 102.832 18.9617C102.832 20.3218 103.067 21.5762 103.536 22.7252C104.028 23.8742 104.708 24.8825 105.576 25.7501C106.443 26.5942 107.452 27.2508 108.601 27.7197C109.773 28.1887 111.051 28.4232 112.434 28.4232Z" fill="#102840"/>
<path d="M86.6497 31.5536C84.7739 31.5536 82.98 31.2722 81.2683 30.7094C79.5566 30.1232 78.2083 29.3729 77.2234 28.4584L78.5248 25.7149C79.4628 26.5356 80.6586 27.2156 82.1124 27.7549C83.5663 28.2942 85.0787 28.5639 86.6497 28.5639C88.0801 28.5639 89.2408 28.3997 90.1318 28.0715C91.0229 27.7432 91.6794 27.2977 92.1015 26.7349C92.5236 26.1487 92.7346 25.4921 92.7346 24.7652C92.7346 23.9211 92.4532 23.2411 91.8905 22.7252C91.3511 22.2094 90.636 21.799 89.7449 21.4942C88.8773 21.1659 87.9159 20.8845 86.8608 20.65C85.8056 20.4155 84.7387 20.1459 83.66 19.8411C82.6049 19.5128 81.6318 19.1024 80.7407 18.61C79.8731 18.1176 79.1697 17.461 78.6303 16.6403C78.091 15.7962 77.8214 14.7176 77.8214 13.4045C77.8214 12.1382 78.1497 10.9775 78.8062 9.92235C79.4862 8.84372 80.518 7.98785 81.9014 7.35474C83.3083 6.69819 85.0904 6.36991 87.2477 6.36991C88.678 6.36991 90.0967 6.5575 91.5036 6.93267C92.9105 7.30785 94.1298 7.84716 95.1615 8.55062L94.0008 11.3644C92.9457 10.661 91.8318 10.1568 90.6594 9.85201C89.487 9.52373 88.3497 9.35959 87.2477 9.35959C85.8642 9.35959 84.727 9.53545 83.8359 9.88718C82.9449 10.2389 82.2883 10.7079 81.8662 11.2941C81.4676 11.8803 81.2683 12.5369 81.2683 13.2638C81.2683 14.1314 81.538 14.8231 82.0773 15.3389C82.64 15.8548 83.3552 16.2652 84.2228 16.57C85.1138 16.8748 86.087 17.1562 87.1421 17.4141C88.1973 17.6486 89.2525 17.9183 90.3077 18.2231C91.3863 18.5279 92.3594 18.9266 93.227 19.419C94.1181 19.9114 94.8333 20.568 95.3726 21.3887C95.9119 22.2094 96.1815 23.2645 96.1815 24.5542C96.1815 25.797 95.8415 26.9577 95.1615 28.0363C94.4815 29.0915 93.4263 29.9474 91.996 30.6039C90.5891 31.237 88.807 31.5536 86.6497 31.5536Z" fill="#102840"/>
<path d="M49.6661 17.2735H62.3282V20.2632H49.6661V17.2735ZM49.9826 28.2122H64.3331V31.2722H46.4653V6.65134H63.8407V9.71137H49.9826V28.2122Z" fill="#102840"/>
<path d="M26.1026 17.2735H38.7647V20.2632H26.1026V17.2735ZM26.4191 28.2122H40.7696V31.2722H22.9019V6.65134H40.2772V9.71137H26.4191V28.2122Z" fill="#102840"/>
<path d="M8.0351 31.5536C6.58129 31.5536 5.22128 31.2488 3.95506 30.6391C2.68884 30.0295 1.65711 29.1502 0.859863 28.0012L2.89988 25.6094C3.57988 26.5474 4.34196 27.2743 5.1861 27.7901C6.0537 28.2826 7.00336 28.5288 8.0351 28.5288C10.8489 28.5288 12.2558 26.8639 12.2558 23.5342V9.71137H3.35712V6.65134H15.7379V23.3584C15.7379 26.1019 15.0814 28.1536 13.7682 29.5136C12.4786 30.8736 10.5675 31.5536 8.0351 31.5536Z" fill="#102840"/>
<path d="M72.8884 0.716948H76.9606L71.1781 11.8033H68.4904L72.8884 0.716948Z" fill="#102840"/>
</svg>
