<svg width="26" height="26" viewBox="0 0 26 26" fill="none" xmlns="http://www.w3.org/2000/svg">
<g clip-path="url(#clip0_1058_385)">
<path d="M2.95093 25.6353C2.95093 23.1094 3.95433 20.687 5.74039 18.9009C7.52645 17.1148 9.94886 16.1115 12.4747 16.1115C15.0006 16.1115 17.423 17.1148 19.2091 18.9009C20.9951 20.687 21.9985 23.1094 21.9985 25.6353H19.6176C19.6176 23.7409 18.865 21.924 17.5255 20.5845C16.186 19.2449 14.3691 18.4924 12.4747 18.4924C10.5803 18.4924 8.76352 19.2449 7.42397 20.5845C6.08443 21.924 5.33188 23.7409 5.33188 25.6353H2.95093ZM12.4747 14.921C8.52831 14.921 5.33188 11.7245 5.33188 7.77812C5.33188 3.83169 8.52831 0.63526 12.4747 0.63526C16.4212 0.63526 19.6176 3.83169 19.6176 7.77812C19.6176 11.7245 16.4212 14.921 12.4747 14.921ZM12.4747 12.54C15.1057 12.54 17.2366 10.4091 17.2366 7.77812C17.2366 5.14716 15.1057 3.01621 12.4747 3.01621C9.84378 3.01621 7.71283 5.14716 7.71283 7.77812C7.71283 10.4091 9.84378 12.54 12.4747 12.54Z" fill="#252525"/>
</g>
<defs>
<clipPath id="clip0_1058_385">
<rect width="25" height="25" fill="white" transform="translate(0.450928 0.635254)"/>
</clipPath>
</defs>
</svg>
