<svg width="26" height="26" viewBox="0 0 26 26" fill="none" xmlns="http://www.w3.org/2000/svg">
<g clip-path="url(#clip0_1058_382)">
<path d="M20.1799 18.6241L25.4509 23.8938L23.7095 25.6353L18.4398 20.3643C16.479 21.9361 14.0401 22.791 11.527 22.7875C5.41302 22.7875 0.450928 17.8254 0.450928 11.7114C0.450928 5.59735 5.41302 0.635256 11.527 0.635256C17.641 0.635256 22.6031 5.59735 22.6031 11.7114C22.6067 14.2244 21.7518 16.6633 20.1799 18.6241ZM17.7112 17.7109C19.2731 16.1047 20.1453 13.9517 20.1418 11.7114C20.1418 6.9511 16.2861 3.09661 11.527 3.09661C6.76677 3.09661 2.91228 6.9511 2.91228 11.7114C2.91228 16.4704 6.76677 20.3261 11.527 20.3261C13.7674 20.3296 15.9204 19.4574 17.5266 17.8955L17.7112 17.7109Z" fill="#252525"/>
</g>
<defs>
<clipPath id="clip0_1058_382">
<rect width="25" height="25" fill="white" transform="translate(0.450928 0.635254)"/>
</clipPath>
</defs>
</svg>
